<?xml version="1.0" encoding="UTF-8" standalone="no"?>
<!DOCTYPE svg PUBLIC "-//W3C//DTD SVG 1.1//EN" "http://www.w3.org/Graphics/SVG/1.1/DTD/svg11.dtd">
<svg width="100%" height="100%" viewBox="0 0 1159 731" version="1.1" xmlns="http://www.w3.org/2000/svg" xmlns:xlink="http://www.w3.org/1999/xlink" xml:space="preserve" xmlns:serif="http://www.serif.com/" style="fill-rule:evenodd;clip-rule:evenodd;stroke-linecap:round;stroke-linejoin:round;stroke-miterlimit:1.5;">
    <g id="tetris">
        <path id="Fej" d="M304.997,39.762C304.997,39.762 317.854,74.797 311.104,100.19C304.354,125.582 304.676,154.189 289.89,184.403C275.105,214.617 259.676,252.546 259.676,252.546C259.676,252.546 261.926,245.41 244.891,249.332C227.855,253.253 206.962,248.11 199.57,240.717C192.177,233.324 178.355,235.896 169.998,237.182C161.641,238.467 146.856,237.824 139.784,232.682C132.713,227.539 137.534,224.967 126.927,223.682C116.32,222.396 112.142,221.11 113.106,212.11C114.07,203.11 114.07,187.361 120.82,182.218C127.57,177.075 134.963,172.896 137.856,164.861C140.749,156.825 147.177,159.718 145.57,142.361C143.963,125.004 145.249,119.218 142.677,111.183C140.106,103.147 141.391,100.576 136.892,93.183C132.392,85.79 133.194,84.55 127.57,85.469C100.621,89.87 99.783,78.298 97.035,71.647C92.213,66.504 77.601,57.013 78.373,47.241C79.144,37.47 77.601,30.784 88.401,28.984C99.201,27.184 99.458,23.841 110.001,27.699C120.544,31.556 127.229,35.927 135.972,39.784C144.715,43.641 152.172,51.613 155.515,45.698C158.858,39.784 177.629,16.384 185.6,12.784C193.572,9.184 192.286,5.842 204.372,6.099C216.457,6.356 220.314,0.699 229.314,7.384C238.314,14.07 259.4,27.699 259.4,27.699C259.4,27.699 272,35.927 281.514,31.813C291.028,27.699 304.997,39.762 304.997,39.762Z" style="fill:white;fill-opacity:0;"/>
        <path id="Nyak" d="M305.833,39.287C305.833,39.287 325.376,33.527 341.01,35.79C356.644,38.053 359.524,35.79 374.953,43.813C390.381,51.836 401.49,51.424 404.781,53.482C408.073,55.539 409.101,99.561 406.633,120.955C404.164,142.349 404.575,160.246 398.61,176.909C392.644,193.572 389.353,196.452 384.21,206.532C379.067,216.612 354.587,260.223 345.742,274.211C336.896,288.2 301.308,338.085 299.045,341.068C296.782,344.051 294.313,327.594 294.313,327.594C294.313,327.594 281.765,297.148 278.679,290.154C275.594,283.16 272.449,261.219 265.514,259.297C259.752,257.7 261.931,246.801 263.251,243.869C268.763,231.62 279.194,211.131 284.064,200.842C304.067,158.589 318.019,84.341 310.335,56.269C308.391,49.17 305.833,39.287 305.833,39.287Z" style="fill:white;fill-opacity:0;"/>
        <path id="Lapocka" d="M532.411,316.415C532.411,316.415 413.796,323.437 392.029,326.246C370.262,329.054 333.749,334.672 317.248,339.236C300.747,343.8 297.939,343.098 297.939,343.098C297.939,343.098 350.601,268.668 359.027,253.22C367.453,237.773 403.614,183.355 405.019,150.002C406.423,116.649 410.285,78.732 408.53,70.306C406.774,61.88 407.125,55.912 407.125,55.912L500.351,62.934C500.351,62.934 534.474,115.772 537.684,163.191C538.801,179.687 541.317,260.291 537.728,284.818C534.223,308.765 532.411,316.415 532.411,316.415Z" style="fill:white;fill-opacity:0;"/>
        <path id="Rostélyos" d="M676.673,151.083L536.321,151.236C532.853,127.33 522.303,98.703 501.655,63.344L629.889,70.706C653.891,94.217 669.441,121.027 676.673,151.083Z" style="fill:white;fill-opacity:0;"/>
        <path id="Borda" d="M685.529,308.767L532.139,316.856C532.139,316.856 540.881,257.913 540.228,223.383C539.582,189.249 537.767,151.988 536.632,151.781L676.465,151.632C689.237,183.967 691.931,237.019 685.529,308.767Z" style="fill:white;fill-opacity:0;"/>
        <path id="Szegy" d="M401.338,325.038C397.88,361.628 411.253,405.431 441.2,447.474C406.406,450.321 376.822,439.705 356.344,423.463L347.396,405.823C347.396,405.823 332.824,404.289 325.155,397.642C317.485,390.995 309.816,377.957 305.47,369.265C301.123,360.573 296.266,343.956 296.266,343.956C336.627,334.66 373.25,326.152 401.338,325.038Z" style="fill:white;fill-opacity:0;"/>
        <path id="Elülső-lábszár" serif:id="Elülső lábszár" d="M401.547,325.703L533.312,316.453C526.755,349.669 521.254,390.278 516.558,436.525C501.699,448.75 457.843,444.688 440.466,445.426C413.42,409.799 399.737,371.103 401.547,325.703Z" style="fill:white;fill-opacity:0;"/>
        <path id="Szegy1" serif:id="Szegy" d="M532.874,316.898L684.765,309.262C683.068,348.439 678.008,387.616 669.767,426.793C607.899,423.411 543.871,419.039 517.604,431.974C520.715,395.594 525.399,357.642 532.874,316.898Z" style="fill:white;fill-opacity:0;"/>
        <path id="ködelőtte" d="M805.931,311.11C768.262,308.029 728.341,306.918 684.855,308.928C698.069,205.114 683.639,123.414 631.407,71.957L750.847,69.776C769.35,94.222 781.519,114.867 785.479,130.586C750.205,130.913 730.127,137.622 731.213,153.22C729.146,172.533 761.228,178.142 801.295,172.854C806.066,217.683 806.978,267.735 805.931,311.11Z" style="fill:white;fill-opacity:0;"/>
        <path id="Bélszín" d="M731.137,154.821C730.13,139.952 741.882,127.543 822.544,128.424C893.414,128 918.638,136.847 915.042,151.549C917.259,174.128 890.646,181.909 827.126,170.746C758.634,180.484 733.303,172.428 731.137,154.821Z" style="fill:white;fill-opacity:0;"/>
        <path id="Ködutána" d="M949.951,270.615C892.555,296.191 842.592,311.92 806.427,310.447C808.164,258.503 806.637,212.759 801.101,174.632C811.85,173.439 815.805,170.008 826.916,171.267C838.37,172.564 857.49,176.419 871.655,176.776C901.711,177.849 918.25,169.511 914.564,145.568C908.652,131.805 867.047,125.673 785.508,128.199C778.128,108.925 767.241,89.082 749.971,68.644L852.231,64.916C902.783,100.56 937.795,163.996 949.951,270.615Z" style="fill:white;fill-opacity:0;"/>
        <path id="Comb" d="M854.622,64.512C869.647,56.955 1038.24,48.083 1047.55,56.672C1094.88,166.732 1117.37,249.834 1111.3,324.593L1085.05,369.588C1041.74,360.945 1001.89,363.232 961.313,373.678C949.032,318.634 959.436,358.247 949.363,272.712C934.207,144.017 890.654,96.896 854.622,64.512Z" style="fill:white;fill-opacity:0;"/>
        <path id="Farok" d="M1046.88,55.452C1046.88,55.452 1095.13,68.499 1101.95,104.29C1108.77,140.081 1116.86,168.203 1122.4,188.229C1127.94,208.255 1132.63,276.854 1130.92,293.046C1129.22,309.237 1127.52,326.28 1137.32,350.567C1147.12,374.854 1158.19,410.219 1151.38,435.784C1144.56,461.349 1148.82,467.74 1144.56,478.818C1140.3,489.896 1134.33,491.174 1131.78,475.409C1129.22,459.644 1121.55,418.74 1115.59,403.401C1109.62,388.062 1103.65,379.541 1106.64,358.662C1109.62,337.784 1111.88,325.441 1111.75,312.301C1111.59,296.849 1105.55,235.03 1102.32,211.278C1100.5,197.872 1050.76,54.832 1046.88,55.452Z" style="fill:white;fill-opacity:0;"/>
        <path id="Puha-Hátszín" serif:id="Puha Hátszín" d="M962.66,372.693L904.194,387.527C904.194,387.527 891.978,379.092 884.124,379.092C876.271,379.092 865.508,381.71 846.892,397.999C828.277,414.288 798.317,424.759 792.79,427.377C787.264,429.995 780.864,429.995 775.338,438.43C769.811,446.865 765.739,455.301 757.885,455.883C750.032,456.464 723.853,441.63 716,435.521C708.146,429.413 687.203,427.377 680.804,427.086C674.405,426.795 670.042,425.632 670.042,425.632C679.527,386.558 685.184,347.484 684.585,308.41C733.997,307.661 790.259,313.281 832.373,308.959C881.61,303.906 914.991,286.415 949.861,270.596" style="fill:white;fill-opacity:0;"/>
        <path id="Bokaszatyor" d="M962.67,373.396C997.07,362.428 1038.41,361.342 1085.72,368.742C1089.06,400.095 1095.14,428.702 1100.61,457.912C1079.77,469.295 1055.06,481.03 1028.76,492.91C994.755,451.396 971.851,411.435 962.67,373.396Z" style="fill:white;fill-opacity:0;"/>
        <path id="Csont" d="M1099.79,459.511L1112.16,667.849C1112.16,667.849 1103.07,670.758 1101.25,688.937C1099.43,707.117 1097.98,724.933 1069.25,726.023C1040.53,727.114 1031.8,724.205 1032.89,714.752C1033.98,705.299 1056.16,704.208 1057.98,684.574C1059.8,664.94 1067.17,560.958 1045.26,538.047C1037.26,529.684 1034.71,482.781 1025.99,492.234C1017.26,501.688 1019.8,531.866 1013.26,546.773C1006.72,561.68 995.807,640.943 994.716,650.76C993.626,660.577 986.717,664.576 982.718,678.029C978.718,691.482 972.901,702.39 954.721,704.208C936.542,706.026 912.181,709.298 919.089,700.936C925.998,692.573 937.633,676.575 939.087,668.212C940.541,659.85 953.631,642.034 953.631,628.581C953.631,615.128 958.357,576.587 957.994,565.316C957.63,554.045 949.995,536.956 948.54,520.594C947.086,504.233 949.995,491.871 946.359,482.054C942.723,472.237 936.178,471.873 928.906,435.878C921.635,399.882 915.09,400.973 912.545,396.246C910,391.52 905.403,386.908 905.403,386.908C925.343,383.185 944.62,378.469 963.236,372.76C975.037,415.005 995.77,454.273 1026.43,490.23C1036.96,491.328 1066.06,477.307 1099.79,459.511Z" style="fill:white;fill-opacity:0;"/>
        <path id="Csont1" serif:id="Csont" d="M515.826,437.934C517.043,438.137 506.946,488.569 504.312,492.877C503.706,497.523 494.818,532.872 494.01,537.316C493.202,541.759 494.414,653.463 484.921,659.724C475.427,665.986 472.397,671.036 476.033,686.388C479.669,701.739 475.427,698.709 467.751,701.335C460.075,703.961 412,703.759 405.133,699.315C398.265,694.872 397.457,686.994 405.133,679.924C412.808,672.854 422.908,661.744 423.514,656.493C424.12,651.241 434.013,635.125 433.614,607.206C433.412,593.066 439.27,583.774 439.472,575.291C439.674,566.807 443.108,556.303 438.664,551.253C434.22,546.203 428.968,547.617 426.948,536.912C424.928,526.206 419.878,452.276 419.878,452.276L423.11,642.353C423.11,642.353 420.484,645.181 416.848,645.585C413.212,645.989 404.729,648.009 405.335,657.503C405.941,666.996 412,686.388 394.629,688.206C377.257,690.024 332.818,689.822 331.404,681.54C329.99,673.258 344.938,658.108 348.776,654.069C352.614,650.029 357.664,640.737 359.078,632.253C360.492,623.769 371.197,558.121 371.601,554.081C372.005,550.041 375.237,543.577 368.976,537.114C362.714,530.65 355.644,528.165 354.634,491.059C353.624,453.952 350.796,443.246 353.624,435.369C356.452,427.491 357.866,424.865 357.866,424.865C385.554,450.259 440.197,452.939 515.826,437.934Z" style="fill:white;fill-opacity:0;"/>
        <path id="Feldolgozott-termékek" serif:id="Feldolgozott termékek" d="M194.804,546.227C194.804,546.227 221.276,659.529 193.959,675.712C163.923,693.506 21.917,692.748 8.155,663.024C-3.638,637.553 15.768,549.642 15.768,549.642C15.768,549.642 194.804,555.787 194.804,546.227Z" style="fill:white;fill-opacity:0;"/>
    </g>
    <g id="lines">
        <path d="M305.674,37.872C323.743,92.301 302.579,167.048 259.12,253.34" style="fill:none;stroke:black;stroke-width:4.17px;stroke-dasharray:8.33,8.33,0,0;"/>
        <path d="M298.677,342.751C298.677,342.751 367.758,326.667 404.145,325.085C440.531,323.503 516.996,316.911 541.781,315.593C566.566,314.274 652.259,309.792 691.282,308.737C730.305,307.682 778.82,308.21 807.297,311.11C835.773,314.01 885.079,297.927 897.208,292.653C909.337,287.38 950.206,271.296 950.206,271.296" style="fill:none;stroke:black;stroke-width:4.17px;stroke-dasharray:8.33,8.33,0,0;"/>
        <path d="M407.336,55.092C407.336,55.092 407.336,152.732 397.448,177.863C387.561,202.994 347.97,274.574 332.415,295.123C317.609,314.681 302.692,345.953 297.336,340.597" style="fill:none;stroke:black;stroke-width:4.17px;stroke-dasharray:8.33,8.33,0,0;"/>
        <path d="M356.133,424.339C356.133,424.339 393.047,447.331 419.414,446.065C445.781,444.8 445.501,446.134 467.719,445.432C487.758,444.8 509.062,444.8 518.132,435.097" style="fill:none;stroke:black;stroke-width:4.17px;stroke-dasharray:8.33,8.33,0,0;"/>
        <path d="M399.937,331.151C399.937,331.151 397.87,364.196 410.641,393.447C423.413,422.698 428.364,431.263 437.427,441.975" style="fill:none;stroke:black;stroke-width:4.17px;stroke-dasharray:8.33,8.33,0,0;"/>
        <path d="M517.637,428.383C517.637,428.383 534.663,293.884 538.071,278.421C541.329,263.64 540.86,143.022 527.195,115.275C514.153,88.797 504.123,67.485 500.168,62.541" style="fill:none;stroke:black;stroke-width:4.17px;stroke-dasharray:8.33,8.33,0,0;"/>
        <path d="M539.389,150.871L675.509,150.212" style="fill:none;stroke:black;stroke-width:4.17px;stroke-dasharray:8.33,8.33,0,0;"/>
        <path d="M629.037,69.792C629.037,69.792 661.82,101.738 670.236,131.425C678.462,160.442 688.157,184.035 688.033,214.481C688.692,244.144 685.317,303.859 685.294,309.294C685.279,312.888 683.118,339.632 679.514,366.081C675.678,394.236 670.782,422.22 669.576,423.44" style="fill:none;stroke:black;stroke-width:4.17px;stroke-dasharray:8.33,8.33,0,0;"/>
        <path d="M805.585,310.546C805.585,310.546 806.113,223.008 804.531,204.814C803.002,187.238 801.367,178.711 801.367,178.711" style="fill:none;stroke:black;stroke-width:4.17px;stroke-dasharray:8.33,8.33,0,0;"/>
        <path d="M751.797,73.77C753.768,72.785 785.685,117.734 783.437,125.186" style="fill:none;stroke:black;stroke-width:4.17px;stroke-dasharray:8.33,8.33,0,0;"/>
        <path d="M904.142,386.542C904.142,386.542 953.414,374.729 957.908,373.233" style="fill:none;stroke:black;stroke-width:4.17px;stroke-dasharray:8.33,8.33,0,0;"/>
        <path d="M968.316,372.626C968.316,372.626 992.672,365.648 1014.53,365.385C1036.38,365.122 1042.83,363.937 1058.37,365.517C1073.9,367.097 1076.93,367.887 1079.96,368.808" style="fill:none;stroke:black;stroke-width:4.17px;stroke-dasharray:8.33,8.33,0,0;"/>
        <path d="M1111.7,319.319C1111.7,319.319 1113.76,263.776 1106.3,230.348C1098.84,196.92 1084.96,152.177 1076.47,131.606C1067.99,111.035 1057.96,77.349 1051.79,65.521" style="fill:none;stroke:black;stroke-width:4.17px;stroke-dasharray:8.33,8.33,0,0;"/>
        <path d="M914.472,153.977C913.541,146.487 914.215,133.149 872.301,130.834C830.387,128.52 848.875,129.995 822.642,129.436C797.072,128.89 762.244,130.32 746.302,135.977C730.359,141.634 729.33,150.634 730.873,158.091C732.416,165.548 741.673,173.777 764.302,174.548C786.93,175.32 776.003,174.997 789.563,174.271C794.626,174 812.762,170.49 823.75,170.255C831.703,170.085 850.111,175.94 864.504,175.443C885.96,174.703 917.256,176.388 914.472,153.977Z" style="fill:none;stroke:black;stroke-width:4.17px;stroke-dasharray:8.33,8.33,0,0;"/>
        <path d="M854.247,68.69C854.247,68.69 893.956,108.04 906.427,126.48C919.328,145.556 936.314,198.877 941.917,224.255C947.52,249.633 956.492,319.597 954.442,333.019C950.998,355.566 977.916,421.458 990.696,439.476C994.099,444.273 1015.09,479.883 1023.65,486.277C1032.22,492.671 1029.26,492.671 1029.26,492.671C1029.26,492.671 1096.16,463.338 1097.81,457.735" style="fill:none;stroke:black;stroke-width:4.17px;stroke-dasharray:8.33,8.33,0,0;"/>
    </g>
    <g id="basket-lines">
        <path d="M32.238,535.094C35.414,528.779 41.765,516.147 46.789,512.358C50.938,509.228 57.75,509.996 62.38,512.358C67.685,515.065 75.913,524.029 78.62,528.598C80.518,531.802 79.253,537.115 78.62,539.771" style="fill:none;stroke:black;stroke-width:4.17px;"/>
        <path d="M65.628,513.787C69.777,510.658 76.589,511.425 81.218,513.787C86.523,516.494 94.752,525.458 97.458,530.027C99.357,533.232 98.091,538.544 97.458,541.201" style="fill:none;stroke:black;stroke-width:4.17px;"/>
        <path d="M83.037,514.047C87.186,510.917 93.999,511.685 98.628,514.047C103.933,516.754 112.161,525.718 114.868,530.287C116.766,533.491 115.501,538.804 114.868,541.46" style="fill:none;stroke:black;stroke-width:4.17px;"/>
        <path d="M100.187,514.956C104.336,511.827 111.148,512.595 115.777,514.956C121.082,517.663 129.311,526.628 132.018,531.197C133.916,534.401 132.65,539.714 132.018,542.37" style="fill:none;stroke:black;stroke-width:4.17px;"/>
        <path d="M16.465,548.587C76.694,554.44 136.032,554.102 194.637,548.587C225.248,685.902 206.677,686.684 106.218,686.684C3.104,686.684 -13.386,684.681 16.465,548.587Z" style="fill:none;stroke:black;stroke-width:8.33px;"/>
        <path d="M196.4,554.898C196.4,554.898 194.615,542.782 194.615,536.765C194.615,523.399 166.177,454.414 105.814,454.414C31.977,454.414 16.108,523.338 16.108,536.557C16.108,542.811 15.431,550.068 15.093,553.696" style="fill:none;stroke:black;stroke-width:8.33px;"/>
        <path d="M26.808,538.965C26.808,542.128 182.836,545.918 182.836,537.592C182.836,525.894 157.949,465.521 105.121,465.521C40.501,465.521 26.808,527.397 26.808,538.965Z" style="fill:none;stroke:black;stroke-width:8.33px;"/>
        <path d="M67.867,512.866C63.695,507.07 55.351,495.479 56.044,490.78C56.737,486.081 67.47,481.242 72.025,484.673C76.853,488.311 82.296,504.508 85.017,512.607" style="fill:none;stroke:black;stroke-width:4.17px;"/>
        <path d="M74.872,484.587C78.458,482.78 82.974,482.094 85.536,484.024C90.365,487.662 95.807,503.859 98.529,511.957" style="fill:none;stroke:black;stroke-width:4.17px;"/>
        <path d="M179.899,496.326L186.961,486.221C186.961,486.221 198.654,466.473 206.32,473.619C213.985,480.764 214.245,479.335 209.698,486.221C205.15,493.107 202.29,495.534 201.175,497.024C200.082,498.484 191.523,509.165 188.145,513.323M97.056,503.371C97.056,503.371 102.902,486.091 121.871,489.339C140.839,492.587 144.217,496.225 147.335,507.398C150.453,518.572 153.572,523.119 153.572,523.119L168.513,511.426" style="fill:none;stroke:black;stroke-width:4.17px;"/>
        <path d="M153.639,522.845L160.113,540.672" style="fill:none;stroke:black;stroke-width:4.17px;"/>
    </g>
    <path id="teljes-marha" d="M295.126,326.532C291.011,318.572 285.422,309.898 281.807,301.546C276.387,289.028 272.418,269.793 266.693,260.786C262.514,254.21 254.938,249.031 247.458,247.505C239.978,245.978 230.208,253.077 221.811,251.626C213.415,250.176 203.731,241.519 197.081,238.803C192.278,236.842 187.095,235.435 181.908,235.332C175.96,235.215 168.219,238.124 161.393,238.099C154.567,238.073 146.538,237.625 140.955,235.179C135.589,232.828 131.71,222.799 127.893,223.423C124.726,223.94 123.154,224.094 120.901,223.5C118.57,222.885 114.573,222.297 113.908,219.735C112.756,215.291 112.705,203.394 113.985,196.838C115.143,190.911 118.928,183.865 121.592,180.395C123.51,177.896 128.143,178.584 129.967,176.015C133.886,170.496 142.94,155.474 145.104,147.278C146.853,140.655 143.351,133.546 142.952,126.84C142.561,120.251 143.573,111.669 142.713,107.04C142.142,103.969 139.185,101.862 137.788,99.068C136.147,95.785 136.691,89.166 132.864,87.344C128.761,85.389 118.842,90.645 113.167,87.344C104.57,82.341 86.827,65.81 81.278,57.329C77.46,51.495 77.721,41.541 79.871,36.46C82.02,31.38 88.447,27.294 94.174,26.846C101.678,26.26 118.717,30.989 124.892,32.943C127.584,33.795 128.652,37.402 131.223,38.571C136.381,40.916 151.076,47.208 155.844,47.012C159.31,46.87 157.454,39.926 159.83,37.398C165.927,30.911 184.49,13.364 192.423,8.088C196.639,5.284 203.171,6.368 207.43,5.743C210.941,5.228 214.5,3.652 217.982,4.336C222.359,5.196 228.817,7.997 233.693,10.902C241.04,15.279 255.07,26.729 262.065,30.598C266.163,32.864 271.171,34.428 275.665,34.116C280.16,33.803 284.341,28.214 289.031,28.722C293.721,29.23 298.228,36.123 303.804,37.164C309.666,38.258 317.375,35.202 324.204,35.288C333.505,35.405 348.088,35.171 359.611,37.867C373.641,41.15 391.316,52.629 408.384,54.985C442.931,59.752 516.911,63.661 566.895,66.474C613.986,69.125 675.071,71.711 708.29,71.868C727.652,71.959 746.882,68.625 766.207,67.412C793.603,65.693 847.105,63.504 872.663,61.55C888.372,60.349 903.837,56.671 919.56,55.688C937.694,54.555 962.588,55.297 981.464,54.75C998.592,54.254 1019.33,51.311 1032.82,52.405C1043.07,53.237 1053.37,56.978 1062.36,61.316C1071.31,65.632 1080.24,70.936 1086.75,78.433C1093.47,86.171 1099.61,99.068 1102.69,107.744C1105.25,114.932 1103.61,123.041 1105.27,130.489C1107.58,140.845 1113.38,156.593 1116.53,169.882C1120.36,186.062 1126.02,209.315 1128.25,227.565C1130.35,244.72 1129.55,262.108 1129.89,279.386C1130.25,297.012 1127.55,317.568 1130.36,333.318C1132.93,347.678 1143.06,359.779 1146.78,373.884C1150.53,388.109 1154.07,403.651 1152.87,418.67C1151.35,437.816 1144.82,488.408 1137.63,488.756C1130.44,489.103 1125.55,441.493 1119.92,421.327C1115.14,404.209 1103.71,383.433 1103.87,367.761C1104,353.897 1113.75,325.789 1110.66,326.727C1107.58,327.665 1088.78,357.053 1085.34,373.389C1081.9,389.725 1092.56,408.796 1096.9,424.741C1101.2,440.562 1098.26,453.047 1100.84,468.601C1103.41,484.155 1105.59,501.614 1105.51,518.066C1105.35,550.464 1109.02,637.653 1110.43,663.447C1110.61,666.781 1110.36,668.116 1109.27,670.305C1108.17,672.493 1105.42,673.346 1103.87,676.578C1100.89,682.753 1098.32,703.661 1096.13,709.875C1095.38,711.983 1094.02,714.61 1092.65,716.382C1091.09,718.414 1089.55,720.878 1086.75,722.068C1082.06,724.061 1070.73,726.24 1062.6,725.82C1053.53,725.351 1033.95,724.061 1032.35,719.254C1030.75,714.447 1049.39,703.27 1052.98,696.978C1055.55,692.491 1055.59,688.864 1056.68,685.464C1057.44,683.091 1059.45,679.069 1059.55,676.578C1060.21,658.874 1060.72,598.729 1057.91,575.28C1056.23,561.301 1047.75,549.016 1042.66,535.887C1037.35,522.17 1033.13,489.654 1026.02,492.976C1018.9,496.298 1018.46,536.385 1010.29,557.536C1000.29,583.446 999.141,630.58 993.592,648.44C992.152,653.073 994.379,656.272 992.855,658.656C991.331,661.04 983.343,672.32 982.095,676.634C980.805,681.089 978.852,684.862 976.709,689.474C974.403,694.438 969.919,702.453 963.578,704.012C954.042,706.357 923.989,707.96 919.495,703.543C915,699.127 933.447,683.925 936.612,677.516C938.467,673.759 936.984,668.998 938.488,665.088C940.637,659.499 947.203,650.667 949.509,643.984C951.596,637.934 950.332,631.074 952.323,624.991C955.879,614.127 953.137,594.821 957.045,578.798C960.953,562.775 947.816,540.733 948.167,528.852C948.38,521.681 945.621,514.684 945.354,507.514C945.08,500.167 948.167,491.569 946.526,484.769C944.885,477.969 937.741,473.401 935.505,466.714C931.285,454.091 927.533,423.022 921.202,409.031C916.342,398.291 904.71,387.614 897.519,382.768C892.083,379.105 884.063,377.329 878.057,379.955C863.128,386.481 824.672,412.704 807.946,421.927C798.293,427.25 785.122,429.822 777.697,435.293C771.216,440.069 768.552,451.863 763.394,454.755C758.514,457.491 751.919,454.771 746.745,452.645C736.662,448.502 719.005,433.309 702.896,429.9C679.995,425.054 633.02,424.741 609.337,423.569C593.176,422.769 576.314,420.911 560.799,422.865C545.502,424.792 524.493,426.539 516.247,435.293C508.001,444.047 513.237,466.206 511.322,475.39C510.208,480.735 505.646,485.01 504.757,490.397C503.506,497.979 505.851,511.93 503.819,520.88C501.915,529.266 493.421,535.537 492.564,544.094C490.453,565.158 491.235,627.883 491.157,647.267C491.139,651.655 491.887,652.988 490.558,655.02C489.229,657.052 485.751,657.933 483.184,659.46C480.097,661.297 474.581,666.405 473.57,671.419C472.554,676.461 476.892,686.348 477.088,689.709C477.146,690.708 477.094,694.907 476.664,695.811C475.882,697.452 474.931,698.436 472.398,699.557C467.63,701.668 455.028,704.247 446.136,704.247C434.568,704.247 408.657,701.589 402.991,699.557C399.279,698.226 397.846,692.983 399.239,688.771C400.88,683.808 418.076,667.706 421.984,662.274C423.178,660.614 421.988,658.1 422.687,656.178C424.094,652.309 429.134,645.187 430.425,639.06C432.262,630.345 432.028,615.065 433.708,603.888C435.324,593.139 439.648,580.595 440.508,571.998C441.164,565.442 440.899,557.147 438.867,552.301C437.047,547.961 429.941,547.338 428.315,542.921C425.696,535.809 423.956,520.827 423.156,509.625C422.062,494.305 422.648,461.086 421.749,451.003C421.619,449.541 419.195,449.453 417.763,449.128C411.747,447.76 424.349,522.366 423.555,530.292C421.444,551.357 422.226,614.081 422.148,633.465C422.13,637.854 424.415,644.564 423.086,646.597C421.757,648.629 416.742,644.132 414.175,645.659C411.088,647.495 405.572,652.603 404.561,657.617C403.545,662.659 407.883,672.546 408.079,675.907C408.137,676.906 406.164,676.879 405.734,677.783C404.952,679.424 405.922,684.634 403.389,685.755C398.621,687.866 386.019,690.445 377.127,690.445C365.559,690.445 339.648,687.788 333.982,685.755C330.27,684.424 328.837,679.181 330.23,674.969C331.871,670.006 349.067,653.905 352.975,648.472C354.17,646.812 352.979,644.298 353.678,642.376C355.085,638.507 360.125,631.386 361.416,625.258C363.253,616.543 363.019,601.263 364.699,590.086C366.315,579.338 370.639,566.794 371.499,558.196C372.155,551.64 371.89,543.345 369.858,538.499C368.038,534.159 360.932,533.536 359.306,529.12C356.688,522.007 354.947,507.026 354.147,495.823C353.053,480.503 352.447,448.358 352.74,437.202C352.818,434.236 354.949,431.692 355.91,428.886C357.644,423.82 350.7,414.434 349.341,406.811C348.792,403.731 320.064,398.933 318.577,393.146C313.918,386.593 309.657,379.398 306.304,372.866C299.027,360.443 294.527,345.357 295.126,326.532Z" style="fill:none;stroke:black;stroke-width:8.33px;"/>
</svg>
